<svg width="18" height="17" viewBox="0 0 18 17" fill="none" xmlns="http://www.w3.org/2000/svg">
<g clip-path="url(#clip0_343_359)">
<path d="M17.583 0L9.85938 5.75726L11.2956 2.36435L17.583 0Z" fill="#E17726"/>
<path d="M0.435758 0.0067749L6.7063 2.36475L8.07008 5.80215L0.435758 0.0067749ZM14.475 12.2441L17.8887 12.3095L16.6957 16.3925L12.5301 15.2371L14.475 12.2441ZM3.52585 12.2441L5.46345 15.2371L1.30496 16.3926L0.119141 12.3095L3.52585 12.2441Z" fill="#E27625"/>
<path d="M7.88463 4.92662L8.02413 9.46583L3.84961 9.27451L5.03705 7.46982L5.05209 7.45247L7.88463 4.92662ZM10.073 4.87598L12.9488 7.45261L12.9637 7.46989L14.1511 9.27458L9.97748 9.46583L10.073 4.87598ZM5.5857 12.2573L7.86509 14.0465L5.21726 15.3343L5.5857 12.2573ZM12.4156 12.257L12.7763 15.3344L10.1359 14.0463L12.4156 12.257Z" fill="#E27625"/>
<path d="M10.1934 13.8778L12.8728 15.1848L10.3804 16.3781L10.4063 15.5894L10.1934 13.8778ZM7.80508 13.8784L7.60054 15.5765L7.61734 16.3772L5.11914 15.1848L7.80508 13.8784Z" fill="#D5BFB2"/>
<path d="M7.03129 10.0583L7.73146 11.5407L5.34766 10.8372L7.03129 10.0583ZM10.9677 10.0584L12.6593 10.8372L10.2677 11.5405L10.9677 10.0584Z" fill="#233447"/>
<path d="M5.76701 12.2421L5.3817 15.4324L3.31641 12.3119L5.76701 12.2421ZM12.2322 12.2422L14.6829 12.3119L12.6099 15.4326L12.2322 12.2422ZM14.2106 9.09406L12.4271 10.9252L11.052 10.2921L10.3936 11.6864L9.96206 9.28878L14.2106 9.09406ZM3.78764 9.09406L8.03698 9.28878L7.60533 11.6864L6.94685 10.2923L5.57906 10.9252L3.78764 9.09406Z" fill="#CC6228"/>
<path d="M3.66797 8.71828L5.6858 10.781L5.75569 12.8174L3.66797 8.71828ZM14.3342 8.7146L12.2426 12.821L12.3214 10.781L14.3342 8.7146ZM7.93882 8.84394L8.02003 9.3589L8.2207 10.6418L8.09168 14.5819L7.48172 11.4167L7.48151 11.384L7.93882 8.84394ZM10.0602 8.83679L10.5187 11.384L10.5185 11.4167L9.90701 14.5898L9.88282 13.7961L9.78741 10.6184L10.0602 8.83679Z" fill="#E27525"/>
<path d="M12.5009 10.6991L12.4326 12.4684L10.304 14.1391L9.87366 13.8328L10.356 11.3299L12.5009 10.6991ZM5.50684 10.6991L7.64427 11.3299L8.12661 13.8328L7.6963 14.1391L5.56759 12.4682L5.50684 10.6991Z" fill="#F5841F"/>
<path d="M4.71191 14.7941L7.43526 16.0941L7.42373 15.5389L7.65161 15.3374H10.347L10.5831 15.5382L10.5656 16.0929L13.2718 14.7974L11.9549 15.8936L10.3627 16.9953H7.62974L6.03857 15.8891L4.71191 14.7941Z" fill="#C0AC9D"/>
<path d="M9.99839 13.7048L10.3834 13.9788L10.6091 15.7924L10.2825 15.5147H7.7178L7.39746 15.798L7.61571 13.979L8.00088 13.7048H9.99839Z" fill="#161616"/>
<path d="M17.0729 0.159363L18 2.96132L17.421 5.79444L17.8333 6.11482L17.2754 6.54364L17.6947 6.8699L17.1394 7.37926L17.4803 7.62796L16.5757 8.6923L12.8653 7.60395L12.8332 7.58659L10.1594 5.3144L17.0729 0.159363ZM0.927141 0.159363L7.84069 5.3144L5.16684 7.58659L5.13471 7.60395L1.42432 8.6923L0.51968 7.62796L0.860273 7.37948L0.305367 6.8699L0.723867 6.544L0.15757 6.11397L0.585422 5.79338L0 2.96146L0.927141 0.159363Z" fill="#763E1A"/>
<path d="M12.6834 7.36598L16.6148 8.51908L17.892 12.4848H14.5223L12.2006 12.5142L13.8891 9.19866L12.6834 7.36598ZM5.31577 7.36598L4.10984 9.19866L5.79853 12.5142L3.47787 12.4848H0.114258L1.38431 8.51915L5.31577 7.36598ZM11.4875 2.34546L10.3879 5.33739L10.1545 9.37914L10.0652 10.646L10.0581 13.8822H7.94095L7.93406 10.6521L7.84448 9.37808L7.61105 5.33739L6.51157 2.34546H11.4875Z" fill="#F5841F"/>
</g>
<defs>
<clipPath id="clip0_343_359">
<rect width="18" height="17" fill="white"/>
</clipPath>
</defs>
</svg>
